PathFileType	4	(X/Y/Z)	F:\MotionCapture\20160217\3\Generated_files\EMG_Fprce_test03-Dynamic.trc
DataRate	CameraRate	NumFrames	NumMarkers	Units	OrigDataRate	OrigDataStartFrame	OrigNumFrames
120.00	120.00	       4	39	mm	120.00	575	       766
Frame#	Time	Top.Head			Front.Head			Rear.Head			R.Shoulder			R.Offset			R.Elbow			R.Wrist			L.Shoulder			L.Elbow			L.Wrist			R.ASIS			L.ASIS			V.Sacral			R.Thigh			R.Knee			R.Shank			R.Ankle			R.Heel			R.Toe			L.Thigh			L.Knee			L.Shank			L.Ankle			L.Heel			L.Toe			R1			R2			R3			R4			R5			R6			R7			L1			L2			L3			L4			L5			L6			L7			V_Mid_ASIS			V_Pelvis_Origin			V_R.Hip_JC			V_L.Hip_JC			V_R.Knee_JC			V_L.Knee_JC			V_R.Ankle_JC			V_L.Ankle_JC			V_Mid_Hip			V_Mid_Shoulder			V_R.Hand			V_L.Hand			V_R.Toe_Offset_Static			V_L.Toe_Offset_Static			V_R.Toe_Offset			V_L.Toe_Offset			
		X1	Y1	Z1	X2	Y2	Z2	X3	Y3	Z3	X4	Y4	Z4	X5	Y5	Z5	X6	Y6	Z6	X7	Y7	Z7	X8	Y8	Z8	X9	Y9	Z9	X10	Y10	Z10	X11	Y11	Z11	X12	Y12	Z12	X13	Y13	Z13	X14	Y14	Z14	X15	Y15	Z15	X16	Y16	Z16	X17	Y17	Z17	X18	Y18	Z18	X19	Y19	Z19	X20	Y20	Z20	X21	Y21	Z21	X22	Y22	Z22	X23	Y23	Z23	X24	Y24	Z24	X25	Y25	Z25	X26	Y26	Z26	X27	Y27	Z27	X28	Y28	Z28	X29	Y29	Z29	X30	Y30	Z30	X31	Y31	Z31	X32	Y32	Z32	X33	Y33	Z33	X34	Y34	Z34	X35	Y35	Z35	X36	Y36	Z36	X37	Y37	Z37	X38	Y38	Z38	X39	Y39	Z39	

575	4.783	-3273.95068	183.81482	1699.85681							-3214.13330	397.38168	1395.92188	-3064.45190	144.43381	1241.11353	-3236.96924	493.50656	1068.25647				-3189.04346	-9.85201	1401.48792	-3094.02539	-109.34492	1094.70435																-3261.07251	392.41025	441.35602				-2914.99023	353.33221	230.54465	-2884.47119	275.24500	273.07401	-2930.60034	346.57901	81.98833				-3473.56006	636.36322	376.50500							-3284.04346	176.63896	40.23737				-2956.80200	340.30124	46.05851	-2949.37012	314.45743	77.71955	-2944.87231	275.02328	168.18964	-2907.99536	256.07410	227.43312	-2879.58569	321.79892	249.29117	-2885.21362	358.45227	174.15671	-2898.07617	373.67255	110.41648	-3503.40381	157.87344	39.33380	-3537.29004	145.72748	27.67876				-3324.42871	206.78487	43.02332				-3406.15137	125.78254	-1.96410																																																				-3407.21875	209.71400	357.65109	-3102.21021	443.15149	181.60121	-3450.68311	204.69893	-7.17797	-3438.02637	547.67291	332.63870	-3258.65576	208.17532	-67.40026	-3373.22119	228.09312	-67.05093	
576	4.792	-3282.08203	184.07550	1702.02246	-3185.75928	244.64594	1640.45081				-3224.02637	395.82672	1398.11670	-3073.21484	144.20235	1243.01953	-3244.82642	491.99200	1069.37720				-3194.89087	-10.53577	1403.99524	-3105.21460	-110.21543	1096.05542										-3086.76001	157.82256	911.19226				-3280.47266	392.03638	444.92709				-2936.24829	351.60074	233.05295	-2900.91431	274.71939	273.00604	-2956.41553	348.68860	84.49018	-3473.73926	630.83301	371.77994				-3408.94458	208.88760	357.51144				-3284.78760	178.01115	41.06451				-2981.67749	342.32562	48.02054	-2973.72803	316.84885	81.18456	-2965.72363	275.15323	170.22433	-2926.92725	255.33208	228.25819	-2898.49658	322.62851	249.86398	-2909.19214	360.81982	176.42909	-2925.29297	377.15045	113.58694	-3503.30908	157.75143	39.37801	-3537.21704	145.56407	27.64734				-3324.62915	205.91055	43.07663				-3406.09717	125.47234	-1.95178																																																				-3126.64673	497.10092	146.27121	-3450.70264	204.58104	-7.14209	-3438.09863	540.64343	327.44144	-3258.49609	207.96486	-67.50050	-3373.15527	227.70586	-66.92078	
577	4.800				-3195.06641	244.48581	1642.81482				-3233.67285	395.60028	1399.54858	-3082.53638	142.59689	1245.17590	-3252.29395	489.69894	1070.90161				-3200.38672	-9.28541	1408.13635				-3386.48218	104.78266	431.04913							-3094.51978	158.15050	913.86475				-3299.14014	390.39636	447.88116				-2956.64160	351.36810	234.21275	-2918.11572	274.52298	271.81586	-2983.93970	351.18839	87.07761				-3148.16797	498.53534	147.11259				-3320.29810	112.71145	59.74609	-3284.71313	177.98207	41.43053				-3009.09229	345.24524	49.95124	-3000.50220	318.42578	81.92586	-2987.29175	275.30713	171.52792	-2945.44946	255.59322	227.95073	-2917.55127	322.29181	248.90636	-2932.88745	361.95499	177.11092	-2952.47852	378.72171	115.42967	-3503.17896	157.43394	39.49793	-3536.98779	145.53931	27.68830				-3324.57739	205.77823	43.24083				-3406.12646	124.97529	-1.82688																																																				-3473.83618	624.81818	366.26538	-3450.42017	204.16969	-7.34564	-3438.12305	533.16266	321.66522	-3258.25928	207.68201	-67.61653	-3373.02344	227.37527	-66.84624	
578	4.808	-3297.90479	182.18938	1706.94348	-3204.05225	245.98068	1644.53064				-3243.54102	395.73904	1400.70557	-3091.48511	141.96805	1247.98059	-3260.91235	489.26190	1072.26526				-3208.83521	-10.88569	1410.85901	-3127.71484	-113.27486	1099.64209										-3103.53687	157.93199	916.54285				-3317.44409	389.72711	452.60059				-2977.22461	351.14349	234.90286	-2935.80298	275.60904	269.35706	-3011.70972	352.32883	88.40012	-3473.97607	618.39874	360.07867				-3411.42188	206.92068	357.31155	-3328.15625	111.63371	58.47013	-3284.61816	177.91333	41.36110				-3038.26807	347.37314	51.44017	-3027.60620	320.98029	84.96715	-3009.61572	275.47421	172.72205	-2965.11279	256.64417	226.35805	-2938.08862	323.07712	247.50128	-2956.45605	363.30569	177.02667	-2979.49854	380.19629	115.85785	-3502.96484	157.17006	39.60175	-3536.82422	145.39703	27.62107				-3324.69775	206.14627	43.51207				-3406.08228	124.59535	-1.75570																																																				-3169.89648	500.06226	147.53200	-3450.35425	203.99016	-7.37789	-3438.20361	525.22272	315.15475	-3258.00415	207.44106	-67.75240	-3372.93091	227.06694	-66.66194	
